<svg width="800" height="800" viewBox="0 0 800 800" fill="none" xmlns="http://www.w3.org/2000/svg">
<circle cx="400" cy="400" r="400" fill="#585858"/>
<path d="M222.222 385.111C213.999 385.111 207.333 391.777 207.333 400C207.333 408.223 213.999 414.889 222.222 414.889L222.222 385.111ZM588.306 410.528C594.12 404.714 594.12 395.286 588.306 389.472L493.553 294.72C487.739 288.905 478.312 288.905 472.497 294.72C466.683 300.534 466.683 309.961 472.497 315.776L556.722 400L472.497 484.224C466.683 490.039 466.683 499.466 472.497 505.28C478.312 511.095 487.739 511.095 493.553 505.28L588.306 410.528ZM222.222 414.889L577.778 414.889L577.778 385.111L222.222 385.111L222.222 414.889Z" fill="white"/>
</svg>
