<svg width="800" height="800" viewBox="0 0 800 800" fill="none" xmlns="http://www.w3.org/2000/svg">
<circle cx="400" cy="400" r="400" fill="#585858"/>
<path d="M222.222 377.778C209.949 377.778 200 387.727 200 400C200 412.273 209.949 422.222 222.222 422.222L222.222 377.778ZM593.491 415.714C602.17 407.035 602.17 392.965 593.491 384.287L452.07 242.865C443.392 234.187 429.321 234.187 420.643 242.865C411.965 251.543 411.965 265.614 420.643 274.292L546.351 400L420.643 525.708C411.965 534.386 411.965 548.457 420.643 557.135C429.321 565.813 443.392 565.813 452.07 557.135L593.491 415.714ZM222.222 422.222L577.778 422.222L577.778 377.778L222.222 377.778L222.222 422.222Z" fill="white"/>
</svg>
