<svg width="1255" height="1150" viewBox="0 0 1255 1150" fill="none" xmlns="http://www.w3.org/2000/svg">
<path d="M100.61 341.949C89.1179 341.949 78.004 339.454 67.2681 334.464C56.6835 329.323 47.3085 322.594 39.1431 314.277C30.9778 305.961 24.4002 296.434 19.4103 285.699C14.5716 274.963 12.1522 263.849 12.1522 252.357C12.1522 247.972 12.5302 243.587 13.2863 239.202C14.0423 234.817 14.874 230.431 15.7812 226.046C17.8982 216.067 19.6371 206.087 20.998 196.107C22.5101 186.127 23.2661 175.996 23.2661 165.714C23.2661 157.851 22.2833 150.139 20.3175 142.579C18.3518 135.018 16.1593 127.533 13.7399 120.124C11.3206 112.715 9.12801 105.23 7.16228 97.6693C5.19656 90.1089 4.2137 82.3972 4.2137 74.5343C4.2137 65.3105 5.95261 57.0695 9.43043 49.8115C12.9083 42.5534 17.5201 36.2026 23.2661 30.7591C29.1633 25.3155 35.8921 20.628 43.4526 16.6966C51.0131 12.7651 58.9516 9.58971 67.2681 7.17035C75.5847 4.751 83.9768 3.01209 92.4445 1.95362C100.912 0.743941 108.851 0.139102 116.26 0.139102C123.367 0.139102 131.079 0.743941 139.395 1.95362C147.712 3.01209 156.028 4.751 164.345 7.17035C172.661 9.4385 180.6 12.4627 188.16 16.2429C195.872 20.0232 202.676 24.6351 208.574 30.0786C214.471 35.371 219.158 41.5706 222.636 48.6774C226.265 55.6331 228.08 63.496 228.08 72.2661C228.08 78.1633 226.87 83.6068 224.451 88.5968C222.031 93.5867 218.78 97.9718 214.698 101.752C210.766 105.381 206.154 108.254 200.862 110.371C195.721 112.488 190.277 113.546 184.531 113.546C177.878 113.546 172.132 112.337 167.293 109.917C162.455 107.347 158.145 104.247 154.365 100.618C150.736 96.9889 147.409 92.9818 144.385 88.5968C141.361 84.2117 138.337 80.2046 135.312 76.5756C132.288 72.9466 129.037 69.9224 125.559 67.503C122.233 64.9325 118.301 63.6472 113.765 63.6472C109.229 63.6472 105.297 65.0837 101.971 67.9566C98.6441 70.8296 95.8468 74.6099 93.5786 79.2974C91.3105 83.8337 89.4204 88.9748 87.9083 94.7208C86.3962 100.316 85.2621 105.986 84.506 111.732C83.75 117.327 83.2208 122.695 82.9183 127.836C82.6159 132.826 82.4647 136.908 82.4647 140.084C82.4647 145.83 83.0695 152.785 84.2792 160.951C85.4889 169.116 87.6058 176.979 90.63 184.539C93.6542 192.1 97.6613 198.526 102.651 203.819C107.641 209.111 113.916 211.757 121.477 211.757C125.257 211.757 129.415 211.228 133.952 210.169C138.488 208.96 142.722 207.221 146.653 204.953C150.736 202.684 154.138 199.887 156.86 196.56C159.582 193.083 160.943 189.076 160.943 184.539C160.943 181.213 159.204 179.096 155.726 178.189C152.399 177.13 148.695 176.601 144.612 176.601C141.588 176.601 138.715 176.752 135.993 177.054C133.422 177.206 131.381 177.281 129.869 177.281C126.996 177.281 124.123 176.903 121.25 176.147C118.377 175.391 115.806 174.257 113.538 172.745C111.27 171.082 109.38 169.04 107.868 166.621C106.507 164.202 105.827 161.404 105.827 158.229C105.827 151.576 107.868 146.056 111.951 141.671C116.184 137.135 121.25 133.582 127.147 131.011C133.196 128.289 139.622 126.399 146.426 125.341C153.231 124.131 159.204 123.526 164.345 123.526C168.125 123.526 172.434 123.753 177.273 124.207C182.112 124.66 187.102 125.416 192.243 126.475C197.384 127.533 202.374 128.97 207.213 130.784C212.203 132.599 216.588 134.867 220.368 137.589C224.299 140.159 227.475 143.335 229.894 147.115C232.314 150.744 233.523 155.053 233.523 160.043C233.523 165.184 232.767 170.25 231.255 175.24C229.894 180.079 228.382 184.993 226.719 189.983C225.055 194.822 223.468 199.66 221.956 204.499C220.595 209.338 219.914 214.403 219.914 219.696C219.914 225.139 220.217 230.583 220.822 236.026C221.578 241.319 222.409 246.686 223.317 252.13C224.224 257.574 224.98 263.017 225.585 268.461C226.341 273.753 226.719 279.121 226.719 284.565C226.719 293.335 224.753 300.82 220.822 307.019C217.041 313.219 211.9 318.435 205.398 322.669C199.047 326.903 191.562 330.305 182.944 332.876C174.476 335.447 165.554 337.412 156.179 338.773C146.956 340.134 137.505 340.966 127.828 341.268C118.301 341.722 109.229 341.949 100.61 341.949ZM384.128 332.196C361.598 332.196 342.47 330.381 326.744 326.752C311.169 322.972 298.468 318.284 288.639 312.69C278.81 306.944 271.477 300.668 266.638 293.864C261.951 287.059 259.229 280.633 258.473 274.585C257.717 268.083 257.944 261.354 259.153 254.398C260.514 247.443 262.102 240.789 263.916 234.439C265.882 228.088 267.697 222.417 269.36 217.427C271.174 212.286 272.082 208.355 272.082 205.633C272.082 196.107 270.872 187.488 268.453 179.776C266.184 172.065 263.614 164.504 260.741 157.095C257.868 149.685 255.222 142.125 252.802 134.413C250.534 126.702 249.4 118.083 249.4 108.556C249.4 99.1814 251.139 90.3357 254.617 82.0191C258.095 73.5514 262.782 66.2177 268.679 60.0181C274.728 53.6673 281.835 48.6774 290 45.0484C298.317 41.2681 307.238 39.378 316.764 39.378C324.627 39.378 331.583 40.9657 337.631 44.1411C343.831 47.1653 349.047 51.248 353.281 56.3891C357.515 61.5302 360.691 67.503 362.807 74.3075C365.076 81.1119 366.21 88.1431 366.21 95.4012C366.21 101.601 365.756 107.725 364.849 113.773C363.942 119.822 362.883 125.87 361.673 131.918C360.615 137.967 359.632 144.015 358.725 150.064C357.818 156.112 357.364 162.236 357.364 168.435C357.364 170.855 357.515 173.955 357.818 177.735C358.12 181.515 358.649 185.598 359.405 189.983C360.161 194.217 361.144 198.526 362.354 202.911C363.715 207.296 365.302 211.303 367.117 214.932C368.931 218.41 371.124 221.283 373.695 223.551C376.265 225.668 379.138 226.727 382.314 226.727C386.245 226.727 389.345 225.139 391.613 221.964C393.881 218.637 395.62 214.781 396.83 210.396C398.191 205.86 399.022 201.324 399.325 196.787C399.778 192.1 400.005 188.395 400.005 185.673C400.005 177.357 399.249 169.192 397.737 161.177C396.376 153.163 394.788 145.149 392.974 137.135C391.31 128.97 389.723 120.88 388.211 112.866C386.85 104.852 386.169 96.6865 386.169 88.37C386.169 80.2046 387.379 73.0222 389.798 66.8226C392.369 60.623 395.998 55.4818 400.685 51.3992C405.373 47.1653 410.968 43.9899 417.47 41.873C423.972 39.756 431.154 38.6976 439.017 38.6976C447.939 38.6976 456.406 39.9829 464.42 42.5534C472.434 44.9728 479.466 48.6774 485.514 53.6673C491.714 58.6572 496.628 64.7812 500.257 72.0393C503.886 79.2974 505.701 87.6895 505.701 97.2157C505.701 104.171 505.096 110.522 503.886 116.268C502.676 122.014 501.089 127.458 499.123 132.599C497.308 137.74 495.267 142.805 492.999 147.795C490.882 152.634 488.841 157.624 486.875 162.765C485.06 167.906 483.548 173.35 482.339 179.096C481.129 184.842 480.524 191.193 480.524 198.148C480.524 202.231 481.507 207.221 483.473 213.118C485.439 219.015 487.555 225.139 489.824 231.49C492.243 237.841 494.36 244.116 496.174 250.316C497.989 256.515 498.745 261.959 498.443 266.646C497.838 274.811 495.192 282.826 490.504 290.689C485.817 298.4 478.785 305.356 469.41 311.555C460.186 317.755 448.543 322.745 434.481 326.525C420.418 330.305 403.634 332.196 384.128 332.196ZM632.036 332.649C619.788 332.649 607.692 330.759 595.746 326.979C583.8 323.199 573.065 317.755 563.538 310.648C554.012 303.39 546.3 294.544 540.403 284.111C534.506 273.526 531.557 261.581 531.557 248.274C531.557 239.353 532.389 230.507 534.052 221.737C535.716 212.816 536.547 203.894 536.547 194.973C536.547 187.715 535.489 180.683 533.372 173.879C531.255 167.075 528.911 160.346 526.341 153.693C523.921 146.888 521.653 140.084 519.536 133.279C517.419 126.475 516.361 119.444 516.361 112.185C516.361 102.81 518.1 94.4939 521.578 87.2359C525.207 79.9778 530.045 73.627 536.094 68.1835C542.142 62.7399 549.022 58.2036 556.734 54.5746C564.597 50.7943 572.762 47.7702 581.23 45.502C589.698 43.0827 598.241 41.4193 606.86 40.5121C615.479 39.4536 623.493 38.9244 630.902 38.9244C637.555 38.9244 644.738 39.378 652.45 40.2853C660.313 41.1925 668.1 42.7046 675.811 44.8216C683.674 46.7873 691.235 49.4335 698.493 52.7601C705.902 55.9355 712.404 59.9425 717.999 64.7812C723.745 69.62 728.281 75.2903 731.608 81.7923C735.086 88.2943 736.825 95.7036 736.825 104.02C736.825 112.942 734.556 120.729 730.02 127.382C725.635 133.884 720.04 139.252 713.236 143.486C706.431 147.72 698.871 150.895 690.554 153.012C682.389 154.978 674.451 155.961 666.739 155.961C662.354 155.961 658.044 155.734 653.81 155.28C649.728 154.827 645.494 154.6 641.109 154.6C638.69 154.6 635.892 154.827 632.717 155.28C629.693 155.734 626.744 156.641 623.871 158.002C621.149 159.212 618.805 160.875 616.84 162.992C615.025 164.958 614.118 167.528 614.118 170.704C614.118 174.333 615.328 177.357 617.747 179.776C620.166 182.196 623.115 184.086 626.593 185.447C630.071 186.807 633.7 187.79 637.48 188.395C641.411 188.849 644.738 189.076 647.46 189.076C652.903 189.076 658.196 188.471 663.337 187.261C668.478 185.9 673.619 184.539 678.76 183.178C684.052 181.666 689.269 180.305 694.41 179.096C699.551 177.735 704.844 177.054 710.287 177.054C716.789 177.054 722.308 178.869 726.845 182.498C731.381 186.127 735.086 190.663 737.959 196.107C740.832 201.399 742.949 207.221 744.309 213.572C745.67 219.771 746.351 225.517 746.351 230.809C746.351 245.779 743.024 259.539 736.371 272.09C729.869 284.64 721.174 295.376 710.287 304.297C699.551 313.219 687.303 320.174 673.543 325.164C659.934 330.154 646.099 332.649 632.036 332.649ZM646.779 100.845C646.779 97.3669 645.494 94.6452 642.923 92.6794C640.504 90.7137 637.48 89.2772 633.851 88.37C630.373 87.3115 626.744 86.7066 622.964 86.5554C619.335 86.253 616.235 86.1018 613.664 86.1018C610.186 86.1018 607.54 86.7066 605.726 87.9163C603.911 89.126 602.626 90.7137 601.87 92.6794C601.114 94.4939 600.66 96.6865 600.509 99.257C600.509 101.676 600.509 104.247 600.509 106.969C600.509 111.354 601.19 114.605 602.55 116.722C603.911 118.839 607.011 119.897 611.85 119.897C614.572 119.897 617.898 119.595 621.83 118.99C625.912 118.234 629.768 117.1 633.397 115.588C637.026 114.076 640.126 112.11 642.697 109.691C645.418 107.271 646.779 104.323 646.779 100.845ZM883.8 332.422C869.284 332.422 854.693 330.305 840.025 326.072C825.358 321.686 812.051 315.26 800.106 306.792C788.311 298.325 778.71 287.891 771.3 275.492C763.891 262.942 760.186 248.501 760.186 232.17C760.186 226.424 761.018 220.376 762.681 214.025C764.345 207.674 766.84 201.853 770.166 196.56C773.493 191.268 777.651 186.959 782.641 183.632C787.631 180.154 793.528 178.415 800.333 178.415C807.742 178.415 814.924 179.549 821.88 181.818C828.836 184.086 835.716 186.656 842.52 189.529C849.325 192.251 856.129 194.746 862.933 197.014C869.889 199.282 877.072 200.416 884.481 200.416C887.959 200.416 891.361 199.887 894.687 198.829C898.014 197.77 900.131 195.124 901.038 190.89C894.839 184.691 888.034 180.23 880.625 177.508C873.367 174.635 865.806 172.518 857.944 171.157C850.232 169.796 842.52 168.738 834.808 167.982C827.097 167.226 819.763 165.789 812.807 163.672C805.852 161.555 799.501 158.304 793.755 153.919C788.009 149.534 783.246 142.957 779.466 134.186C777.651 129.953 775.988 125.114 774.476 119.67C772.964 114.076 772.208 109.01 772.208 104.474C772.208 95.4012 774.098 87.4627 777.878 80.6583C781.658 73.7026 786.648 67.7298 792.848 62.7399C799.047 57.5988 806.154 53.3649 814.168 50.0383C822.182 46.5605 830.423 43.8387 838.891 41.873C847.51 39.756 855.978 38.2439 864.294 37.3367C872.762 36.4294 880.474 35.9758 887.429 35.9758C893.024 35.9758 899.375 36.3538 906.482 37.1099C913.74 37.7147 921.149 38.8488 928.71 40.5121C936.27 42.1754 943.679 44.4435 950.937 47.3165C958.347 50.0383 964.924 53.4405 970.67 57.5232C976.416 61.6058 981.028 66.4445 984.506 72.0393C988.135 77.6341 989.95 84.0605 989.95 91.3185C989.95 95.7036 988.891 99.9375 986.774 104.02C984.808 107.952 982.162 111.429 978.836 114.454C975.509 117.327 971.729 119.67 967.495 121.485C963.261 123.148 959.027 123.98 954.793 123.98C949.35 123.98 944.587 123.148 940.504 121.485C936.421 119.67 932.717 117.478 929.39 114.907C926.215 112.337 923.191 109.539 920.318 106.515C917.596 103.34 914.798 100.467 911.925 97.8962C909.052 95.3256 905.877 93.2087 902.399 91.5454C899.073 89.7308 895.217 88.8236 890.832 88.8236C886.9 88.8236 883.196 89.6552 879.718 91.3185C876.24 92.8306 874.123 95.7792 873.367 100.164C880.927 107.422 889.244 113.546 898.317 118.536C907.54 123.375 916.764 127.911 925.988 132.145C935.363 136.379 944.435 140.689 953.206 145.074C961.976 149.459 969.763 154.827 976.568 161.177C983.372 167.377 988.816 175.089 992.898 184.312C997.132 193.385 999.249 204.726 999.249 218.335C999.249 228.315 997.737 238.068 994.713 247.594C991.84 257.12 987.757 266.117 982.465 274.585C977.324 283.052 971.124 290.84 963.866 297.947C956.608 305.053 948.669 311.177 940.05 316.319C931.583 321.308 922.586 325.24 913.059 328.113C903.533 330.986 893.78 332.422 883.8 332.422ZM1134.66 332.422C1120.14 332.422 1105.55 330.305 1090.88 326.072C1076.21 321.686 1062.91 315.26 1050.96 306.792C1039.17 298.325 1029.57 287.891 1022.16 275.492C1014.75 262.942 1011.04 248.501 1011.04 232.17C1011.04 226.424 1011.87 220.376 1013.54 214.025C1015.2 207.674 1017.7 201.853 1021.02 196.56C1024.35 191.268 1028.51 186.959 1033.5 183.632C1038.49 180.154 1044.39 178.415 1051.19 178.415C1058.6 178.415 1065.78 179.549 1072.74 181.818C1079.69 184.086 1086.57 186.656 1093.38 189.529C1100.18 192.251 1106.99 194.746 1113.79 197.014C1120.75 199.282 1127.93 200.416 1135.34 200.416C1138.82 200.416 1142.22 199.887 1145.54 198.829C1148.87 197.77 1150.99 195.124 1151.9 190.89C1145.7 184.691 1138.89 180.23 1131.48 177.508C1124.22 174.635 1116.66 172.518 1108.8 171.157C1101.09 169.796 1093.38 168.738 1085.67 167.982C1077.95 167.226 1070.62 165.789 1063.66 163.672C1056.71 161.555 1050.36 158.304 1044.61 153.919C1038.87 149.534 1034.1 142.957 1030.32 134.186C1028.51 129.953 1026.84 125.114 1025.33 119.67C1023.82 114.076 1023.06 109.01 1023.06 104.474C1023.06 95.4012 1024.95 87.4627 1028.73 80.6583C1032.52 73.7026 1037.51 67.7298 1043.7 62.7399C1049.9 57.5988 1057.01 53.3649 1065.03 50.0383C1073.04 46.5605 1081.28 43.8387 1089.75 41.873C1098.37 39.756 1106.83 38.2439 1115.15 37.3367C1123.62 36.4294 1131.33 35.9758 1138.29 35.9758C1143.88 35.9758 1150.23 36.3538 1157.34 37.1099C1164.6 37.7147 1172.01 38.8488 1179.57 40.5121C1187.13 42.1754 1194.54 44.4435 1201.79 47.3165C1209.2 50.0383 1215.78 53.4405 1221.53 57.5232C1227.27 61.6058 1231.89 66.4445 1235.36 72.0393C1238.99 77.6341 1240.81 84.0605 1240.81 91.3185C1240.81 95.7036 1239.75 99.9375 1237.63 104.02C1235.67 107.952 1233.02 111.429 1229.69 114.454C1226.37 117.327 1222.59 119.67 1218.35 121.485C1214.12 123.148 1209.88 123.98 1205.65 123.98C1200.21 123.98 1195.44 123.148 1191.36 121.485C1187.28 119.67 1183.57 117.478 1180.25 114.907C1177.07 112.337 1174.05 109.539 1171.17 106.515C1168.45 103.34 1165.66 100.467 1162.78 97.8962C1159.91 95.3256 1156.73 93.2087 1153.26 91.5454C1149.93 89.7308 1146.07 88.8236 1141.69 88.8236C1137.76 88.8236 1134.05 89.6552 1130.57 91.3185C1127.1 92.8306 1124.98 95.7792 1124.22 100.164C1131.78 107.422 1140.1 113.546 1149.17 118.536C1158.4 123.375 1167.62 127.911 1176.84 132.145C1186.22 136.379 1195.29 140.689 1204.06 145.074C1212.83 149.459 1220.62 154.827 1227.42 161.177C1234.23 167.377 1239.67 175.089 1243.76 184.312C1247.99 193.385 1250.11 204.726 1250.11 218.335C1250.11 228.315 1248.59 238.068 1245.57 247.594C1242.7 257.12 1238.61 266.117 1233.32 274.585C1228.18 283.052 1221.98 290.84 1214.72 297.947C1207.46 305.053 1199.53 311.177 1190.91 316.319C1182.44 321.308 1173.44 325.24 1163.92 328.113C1154.39 330.986 1144.64 332.422 1134.66 332.422ZM384.808 722.949C373.619 722.949 363.79 720.529 355.323 715.691C347.006 710.852 339.975 704.577 334.229 696.865C328.634 689.002 324.4 680.156 321.527 670.328C318.654 660.499 317.218 650.595 317.218 640.615C317.218 628.972 318.503 617.555 321.074 606.366C323.644 595.176 326.442 584.062 329.466 573.024C332.641 561.835 335.514 550.645 338.085 539.456C340.655 528.266 341.94 516.85 341.94 505.207C341.94 496.588 339.37 489.708 334.229 484.567C329.239 479.274 322.434 476.628 313.815 476.628C308.826 476.628 304.062 477.46 299.526 479.123C295.141 480.635 290.756 482.374 286.371 484.34C281.986 486.154 277.601 487.893 273.216 489.556C268.831 491.069 264.219 491.825 259.38 491.825C255.297 491.825 251.744 490.766 248.72 488.649C245.696 486.381 243.201 483.659 241.235 480.484C239.118 477.157 237.606 473.528 236.699 469.597C235.64 465.665 235.111 462.036 235.111 458.71C235.111 447.067 237.455 437.087 242.142 428.77C246.83 420.454 253.029 413.498 260.741 407.903C268.604 402.157 277.525 397.545 287.505 394.068C297.485 390.59 307.767 387.944 318.352 386.129C328.936 384.315 339.446 383.18 349.879 382.727C360.312 382.122 369.839 381.82 378.458 381.82C386.472 381.82 395.393 382.122 405.222 382.727C415.05 383.18 424.955 384.239 434.934 385.902C445.065 387.566 454.819 389.985 464.194 393.16C473.72 396.336 482.187 400.645 489.597 406.089C497.006 411.381 502.903 417.959 507.288 425.822C511.825 433.533 514.093 442.833 514.093 453.72C514.093 457.802 513.639 461.885 512.732 465.968C511.825 469.899 510.312 473.453 508.196 476.628C506.079 479.803 503.357 482.374 500.03 484.34C496.855 486.305 492.848 487.288 488.009 487.288C484.229 487.288 480.524 486.835 476.895 485.927C473.266 484.869 469.637 483.81 466.008 482.752C462.53 481.542 458.977 480.484 455.348 479.577C451.719 478.518 448.014 477.989 444.234 477.989C440.151 477.989 436.749 478.821 434.027 480.484C431.305 482.147 429.037 484.34 427.223 487.061C425.559 489.783 424.35 492.883 423.594 496.361C422.989 499.687 422.686 503.09 422.686 506.568C422.686 518.967 424.047 531.139 426.769 543.085C429.642 554.879 432.666 566.673 435.842 578.468C439.168 590.262 442.193 602.132 444.914 614.078C447.787 625.872 449.224 637.969 449.224 650.368C449.224 659.743 447.712 668.816 444.687 677.586C441.814 686.356 437.581 694.143 431.986 700.948C426.542 707.601 419.813 712.969 411.799 717.051C403.785 720.983 394.788 722.949 384.808 722.949ZM694.864 715.691C687.606 715.691 681.255 714.254 675.811 711.381C670.368 708.508 665.832 704.652 662.203 699.814C658.725 694.975 656.079 689.456 654.264 683.256C652.601 677.056 651.769 670.706 651.769 664.204C651.769 657.248 652.45 650.444 653.81 643.79C655.171 637.137 656.683 630.484 658.347 623.831C660.161 617.177 661.749 610.524 663.11 603.871C664.471 597.218 665.151 590.413 665.151 583.458C665.151 579.677 664.849 574.612 664.244 568.261C663.639 561.759 662.429 555.408 660.615 549.209C658.952 542.858 656.532 537.414 653.357 532.878C650.181 528.191 645.948 525.847 640.655 525.847C636.724 525.847 633.548 527.359 631.129 530.383C628.861 533.256 627.122 536.734 625.912 540.817C624.703 544.899 623.871 549.133 623.417 553.518C623.115 557.752 622.964 561.305 622.964 564.178C622.964 572.646 623.72 581.038 625.232 589.355C626.895 597.52 628.634 605.685 630.449 613.851C632.414 622.016 634.153 630.257 635.665 638.574C637.329 646.739 638.16 655.055 638.16 663.523C638.16 671.084 637.404 677.964 635.892 684.163C634.38 690.363 631.885 695.731 628.407 700.267C624.929 704.652 620.317 708.054 614.572 710.474C608.977 712.893 602.097 714.103 593.931 714.103C582.137 714.103 572.006 711.381 563.538 705.937C555.071 700.343 548.115 693.236 542.671 684.617C537.228 675.998 533.145 666.396 530.423 655.811C527.853 645.227 526.567 634.869 526.567 624.738C526.567 616.27 527.324 607.954 528.836 599.788C530.499 591.472 532.238 583.231 534.052 575.066C535.867 566.9 537.53 558.735 539.042 550.57C540.706 542.253 541.537 533.861 541.537 525.393C541.537 516.925 540.479 508.609 538.362 500.444C536.245 492.278 533.826 484.189 531.104 476.174C528.533 468.16 526.189 460.071 524.073 451.905C521.956 443.74 520.897 435.423 520.897 426.956C520.897 420.151 522.712 414.178 526.341 409.037C529.97 403.745 534.506 399.36 539.95 395.882C545.544 392.404 551.593 389.834 558.095 388.17C564.748 386.356 571.023 385.449 576.92 385.449C582.061 385.449 587.051 386.205 591.89 387.717C596.729 389.078 601.038 391.195 604.819 394.068C608.599 396.789 611.623 400.267 613.891 404.501C616.159 408.735 617.293 413.649 617.293 419.244C617.293 423.78 616.688 428.165 615.479 432.399C614.42 436.633 613.135 440.867 611.623 445.101C610.262 449.335 608.977 453.569 607.767 457.802C606.709 462.036 606.179 466.421 606.179 470.958C606.179 473.377 606.406 475.796 606.86 478.216C607.313 480.635 608.977 482.223 611.85 482.979C617.596 479.35 622.964 475.418 627.954 471.184C633.095 466.951 638.311 463.019 643.604 459.39C649.047 455.61 654.718 452.51 660.615 450.091C666.512 447.671 673.165 446.462 680.575 446.462C691.159 446.462 700.61 448.503 708.926 452.586C717.243 456.668 724.274 462.187 730.02 469.143C735.917 476.099 740.378 484.113 743.402 493.185C746.578 502.107 748.165 511.557 748.165 521.537C748.165 527.888 747.485 534.088 746.124 540.136C744.914 546.184 744.309 552.384 744.309 558.735C744.309 567.354 745.217 575.822 747.031 584.138C748.997 592.455 751.114 600.771 753.382 609.088C755.65 617.404 757.691 625.721 759.506 634.037C761.472 642.354 762.455 650.822 762.455 659.441C762.455 667.757 760.338 675.393 756.104 682.349C752.021 689.304 746.653 695.277 740 700.267C733.498 705.106 726.24 708.886 718.226 711.608C710.363 714.33 702.576 715.691 694.864 715.691ZM890.605 713.649C878.357 713.649 866.26 711.759 854.315 707.979C842.369 704.199 831.633 698.755 822.107 691.648C812.581 684.39 804.869 675.544 798.972 665.111C793.075 654.526 790.126 642.581 790.126 629.274C790.126 620.353 790.958 611.507 792.621 602.737C794.284 593.816 795.116 584.894 795.116 575.973C795.116 568.715 794.057 561.683 791.941 554.879C789.824 548.075 787.48 541.346 784.909 534.693C782.49 527.888 780.222 521.084 778.105 514.279C775.988 507.475 774.929 500.444 774.929 493.185C774.929 483.81 776.668 475.494 780.146 468.236C783.775 460.978 788.614 454.627 794.662 449.183C800.711 443.74 807.591 439.204 815.302 435.575C823.165 431.794 831.331 428.77 839.798 426.502C848.266 424.083 856.809 422.419 865.428 421.512C874.047 420.454 882.061 419.924 889.471 419.924C896.124 419.924 903.306 420.378 911.018 421.285C918.881 422.193 926.668 423.705 934.38 425.822C942.243 427.787 949.803 430.433 957.061 433.76C964.471 436.935 970.973 440.943 976.568 445.781C982.314 450.62 986.85 456.29 990.176 462.792C993.654 469.294 995.393 476.704 995.393 485.02C995.393 493.942 993.125 501.729 988.589 508.382C984.204 514.884 978.609 520.252 971.804 524.486C965 528.72 957.44 531.895 949.123 534.012C940.958 535.978 933.019 536.961 925.307 536.961C920.922 536.961 916.613 536.734 912.379 536.28C908.296 535.827 904.062 535.6 899.677 535.6C897.258 535.6 894.461 535.827 891.285 536.28C888.261 536.734 885.312 537.641 882.44 539.002C879.718 540.212 877.374 541.875 875.408 543.992C873.594 545.958 872.686 548.528 872.686 551.704C872.686 555.333 873.896 558.357 876.316 560.776C878.735 563.196 881.683 565.086 885.161 566.447C888.639 567.807 892.268 568.79 896.048 569.395C899.98 569.849 903.306 570.076 906.028 570.076C911.472 570.076 916.764 569.471 921.905 568.261C927.046 566.9 932.187 565.539 937.329 564.178C942.621 562.666 947.838 561.305 952.979 560.096C958.12 558.735 963.412 558.054 968.856 558.054C975.358 558.054 980.877 559.869 985.413 563.498C989.95 567.127 993.654 571.663 996.527 577.107C999.4 582.399 1001.52 588.221 1002.88 594.572C1004.24 600.771 1004.92 606.517 1004.92 611.809C1004.92 626.779 1001.59 640.539 994.94 653.09C988.438 665.64 979.743 676.376 968.856 685.297C958.12 694.219 945.872 701.174 932.112 706.164C918.503 711.154 904.667 713.649 890.605 713.649ZM905.348 481.845C905.348 478.367 904.062 475.645 901.492 473.679C899.073 471.714 896.048 470.277 892.419 469.37C888.942 468.311 885.312 467.707 881.532 467.555C877.903 467.253 874.803 467.102 872.233 467.102C868.755 467.102 866.109 467.707 864.294 468.916C862.48 470.126 861.195 471.714 860.439 473.679C859.682 475.494 859.229 477.686 859.078 480.257C859.078 482.676 859.078 485.247 859.078 487.969C859.078 492.354 859.758 495.605 861.119 497.722C862.48 499.839 865.58 500.897 870.418 500.897C873.14 500.897 876.467 500.595 880.398 499.99C884.481 499.234 888.337 498.1 891.966 496.588C895.595 495.076 898.695 493.11 901.265 490.691C903.987 488.271 905.348 485.323 905.348 481.845ZM253.483 1103.95C242.293 1103.95 232.465 1101.53 223.997 1096.69C215.68 1091.85 208.649 1085.58 202.903 1077.86C197.308 1070 193.075 1061.16 190.202 1051.33C187.329 1041.5 185.892 1031.59 185.892 1021.61C185.892 1009.97 187.177 998.555 189.748 987.366C192.319 976.176 195.116 965.062 198.14 954.024C201.316 942.835 204.189 931.645 206.759 920.456C209.33 909.266 210.615 897.85 210.615 886.207C210.615 877.588 208.044 870.708 202.903 865.567C197.913 860.274 191.109 857.628 182.49 857.628C177.5 857.628 172.737 858.46 168.201 860.123C163.816 861.635 159.43 863.374 155.045 865.34C150.66 867.154 146.275 868.893 141.89 870.556C137.505 872.069 132.893 872.825 128.054 872.825C123.972 872.825 120.418 871.766 117.394 869.649C114.37 867.381 111.875 864.659 109.909 861.484C107.792 858.157 106.28 854.528 105.373 850.597C104.315 846.665 103.785 843.036 103.785 839.71C103.785 828.067 106.129 818.087 110.817 809.77C115.504 801.454 121.704 794.498 129.415 788.903C137.278 783.157 146.2 778.545 156.179 775.068C166.159 771.59 176.442 768.944 187.026 767.129C197.611 765.315 208.12 764.18 218.553 763.727C228.987 763.122 238.513 762.82 247.132 762.82C255.146 762.82 264.068 763.122 273.896 763.727C283.725 764.18 293.629 765.239 303.609 766.902C313.74 768.566 323.493 770.985 332.868 774.16C342.394 777.336 350.862 781.645 358.271 787.089C365.68 792.381 371.578 798.959 375.963 806.822C380.499 814.533 382.767 823.833 382.767 834.72C382.767 838.802 382.314 842.885 381.406 846.968C380.499 850.899 378.987 854.453 376.87 857.628C374.753 860.803 372.031 863.374 368.705 865.34C365.529 867.305 361.522 868.288 356.683 868.288C352.903 868.288 349.199 867.835 345.57 866.927C341.941 865.869 338.312 864.81 334.682 863.752C331.205 862.542 327.651 861.484 324.022 860.577C320.393 859.518 316.689 858.989 312.908 858.989C308.826 858.989 305.423 859.821 302.702 861.484C299.98 863.147 297.712 865.34 295.897 868.061C294.234 870.783 293.024 873.883 292.268 877.361C291.663 880.687 291.361 884.09 291.361 887.568C291.361 899.967 292.722 912.139 295.444 924.085C298.317 935.879 301.341 947.673 304.516 959.468C307.843 971.262 310.867 983.132 313.589 995.078C316.462 1006.87 317.898 1018.97 317.898 1031.37C317.898 1040.74 316.386 1049.82 313.362 1058.59C310.489 1067.36 306.255 1075.14 300.66 1081.95C295.217 1088.6 288.488 1093.97 280.474 1098.05C272.46 1101.98 263.463 1103.95 253.483 1103.95ZM524.98 1094.2C502.45 1094.2 483.322 1092.38 467.596 1088.75C452.021 1084.97 439.32 1080.28 429.491 1074.69C419.662 1068.94 412.329 1062.67 407.49 1055.86C402.802 1049.06 400.081 1042.63 399.325 1036.58C398.569 1030.08 398.795 1023.35 400.005 1016.4C401.366 1009.44 402.954 1002.79 404.768 996.439C406.734 990.088 408.548 984.417 410.212 979.427C412.026 974.286 412.933 970.355 412.933 967.633C412.933 958.107 411.724 949.488 409.304 941.776C407.036 934.065 404.466 926.504 401.593 919.095C398.72 911.685 396.074 904.125 393.654 896.413C391.386 888.702 390.252 880.083 390.252 870.556C390.252 861.181 391.991 852.336 395.469 844.019C398.947 835.551 403.634 828.218 409.531 822.018C415.58 815.667 422.687 810.677 430.852 807.048C439.168 803.268 448.09 801.378 457.616 801.378C465.479 801.378 472.434 802.966 478.483 806.141C484.682 809.165 489.899 813.248 494.133 818.389C498.367 823.53 501.542 829.503 503.659 836.307C505.927 843.112 507.062 850.143 507.062 857.401C507.062 863.601 506.608 869.725 505.701 875.773C504.793 881.822 503.735 887.87 502.525 893.918C501.467 899.967 500.484 906.015 499.577 912.064C498.669 918.112 498.216 924.236 498.216 930.435C498.216 932.855 498.367 935.955 498.669 939.735C498.972 943.515 499.501 947.598 500.257 951.983C501.013 956.217 501.996 960.526 503.206 964.911C504.567 969.296 506.154 973.303 507.969 976.932C509.783 980.41 511.976 983.283 514.546 985.551C517.117 987.668 519.99 988.727 523.165 988.727C527.097 988.727 530.197 987.139 532.465 983.964C534.733 980.637 536.472 976.781 537.681 972.396C539.042 967.86 539.874 963.324 540.176 958.787C540.63 954.1 540.857 950.395 540.857 947.673C540.857 939.357 540.101 931.192 538.589 923.177C537.228 915.163 535.64 907.149 533.826 899.135C532.162 890.97 530.575 882.88 529.063 874.866C527.702 866.852 527.021 858.686 527.021 850.37C527.021 842.205 528.231 835.022 530.65 828.823C533.221 822.623 536.85 817.482 541.537 813.399C546.225 809.165 551.82 805.99 558.322 803.873C564.824 801.756 572.006 800.698 579.869 800.698C588.79 800.698 597.258 801.983 605.272 804.553C613.286 806.973 620.318 810.677 626.366 815.667C632.566 820.657 637.48 826.781 641.109 834.039C644.738 841.297 646.552 849.69 646.552 859.216C646.552 866.171 645.948 872.522 644.738 878.268C643.528 884.014 641.941 889.458 639.975 894.599C638.16 899.74 636.119 904.805 633.851 909.795C631.734 914.634 629.693 919.624 627.727 924.765C625.912 929.906 624.4 935.35 623.191 941.096C621.981 946.842 621.376 953.193 621.376 960.148C621.376 964.231 622.359 969.221 624.325 975.118C626.29 981.015 628.407 987.139 630.675 993.49C633.095 999.841 635.212 1006.12 637.026 1012.32C638.841 1018.52 639.597 1023.96 639.294 1028.65C638.69 1036.81 636.043 1044.83 631.356 1052.69C626.668 1060.4 619.637 1067.36 610.262 1073.56C601.038 1079.76 589.395 1084.74 575.333 1088.53C561.27 1092.31 544.486 1094.2 524.98 1094.2ZM825.509 1096.69C818.251 1096.69 811.9 1095.25 806.457 1092.38C801.164 1089.51 796.704 1085.65 793.075 1080.81C789.446 1075.97 786.724 1070.46 784.909 1064.26C783.246 1058.06 782.414 1051.71 782.414 1045.2C782.414 1038.85 783.17 1032.73 784.683 1026.83C786.195 1020.93 787.707 1014.96 789.219 1008.91C791.789 998.329 793.377 987.668 793.982 976.932C794.738 966.197 795.116 955.385 795.116 944.498C795.116 942.079 795.04 938.903 794.889 934.972C794.889 930.889 794.662 926.504 794.209 921.817C793.906 916.978 793.301 912.139 792.394 907.3C791.638 902.31 790.428 897.85 788.765 893.918C787.253 889.836 785.287 886.585 782.868 884.165C780.6 881.595 777.727 880.309 774.249 880.309C770.922 880.309 768.125 881.519 765.857 883.939C763.589 886.358 761.699 889.458 760.187 893.238C758.674 897.018 757.465 901.252 756.558 905.94C755.65 910.476 754.97 915.012 754.516 919.548C754.063 924.085 753.76 928.319 753.609 932.25C753.609 936.181 753.609 939.281 753.609 941.549C753.609 950.32 754.365 959.014 755.877 967.633C757.54 976.101 759.279 984.569 761.094 993.036C763.06 1001.5 764.798 1010.05 766.311 1018.67C767.974 1027.13 768.806 1035.75 768.806 1044.52C768.806 1051.93 768.049 1058.81 766.537 1065.16C765.025 1071.36 762.455 1076.66 758.826 1081.04C755.348 1085.43 750.812 1088.9 745.217 1091.47C739.622 1093.89 732.742 1095.1 724.577 1095.1C712.177 1095.1 701.668 1092.23 693.049 1086.48C684.582 1080.59 677.702 1073.1 672.409 1064.03C667.117 1054.96 663.261 1044.98 660.842 1034.09C658.422 1023.05 657.213 1012.32 657.213 1001.88C657.213 994.019 658.044 986.307 659.708 978.747C661.522 971.035 663.412 963.475 665.378 956.066C667.495 948.505 669.385 940.945 671.048 933.384C672.712 925.672 673.543 917.885 673.543 910.022C673.543 904.276 672.636 898.757 670.822 893.465C669.007 888.021 666.966 882.653 664.698 877.361C662.429 872.069 660.388 866.776 658.574 861.484C656.759 856.04 655.852 850.446 655.852 844.7C655.852 837.442 657.364 831.318 660.388 826.328C663.564 821.186 667.722 816.953 672.863 813.626C678.004 810.299 683.826 807.653 690.328 805.687C696.83 803.722 703.483 802.285 710.287 801.378C717.092 800.32 723.745 799.715 730.247 799.563C736.9 799.261 742.797 799.11 747.939 799.11H755.423C765.252 799.11 775.232 799.261 785.363 799.563C795.494 799.866 805.323 800.849 814.849 802.512C824.375 804.175 833.221 806.67 841.386 809.997C849.703 813.324 856.961 818.087 863.16 824.286C869.36 830.335 874.199 837.971 877.676 847.195C881.306 856.418 883.12 867.759 883.12 881.217C883.12 886.358 882.666 891.499 881.759 896.64C880.852 901.63 879.793 906.62 878.584 911.61C877.525 916.6 876.542 921.665 875.635 926.806C874.728 931.796 874.274 936.862 874.274 942.003C874.274 950.32 875.257 958.485 877.223 966.499C879.189 974.513 881.381 982.527 883.8 990.541C886.22 998.404 888.412 1006.34 890.378 1014.36C892.344 1022.37 893.327 1030.61 893.327 1039.08C893.327 1047.7 891.285 1055.56 887.203 1062.67C883.12 1069.62 877.828 1075.67 871.326 1080.81C864.824 1085.8 857.49 1089.73 849.325 1092.61C841.311 1095.33 833.372 1096.69 825.509 1096.69ZM1021.93 1094.65C1009.68 1094.65 997.586 1092.76 985.64 1088.98C973.695 1085.2 962.959 1079.76 953.432 1072.65C943.906 1065.39 936.195 1056.54 930.297 1046.11C924.4 1035.53 921.452 1023.58 921.452 1010.27C921.452 1001.35 922.283 992.507 923.947 983.737C925.61 974.816 926.442 965.894 926.442 956.973C926.442 949.715 925.383 942.683 923.266 935.879C921.149 929.075 918.805 922.346 916.235 915.693C913.816 908.888 911.547 902.084 909.43 895.279C907.314 888.475 906.255 881.444 906.255 874.185C906.255 864.81 907.994 856.494 911.472 849.236C915.101 841.978 919.94 835.627 925.988 830.183C932.036 824.74 938.916 820.204 946.628 816.575C954.491 812.794 962.656 809.77 971.124 807.502C979.592 805.083 988.135 803.419 996.754 802.512C1005.37 801.454 1013.39 800.924 1020.8 800.924C1027.45 800.924 1034.63 801.378 1042.34 802.285C1050.21 803.193 1057.99 804.705 1065.71 806.822C1073.57 808.787 1081.13 811.433 1088.39 814.76C1095.8 817.935 1102.3 821.943 1107.89 826.781C1113.64 831.62 1118.18 837.29 1121.5 843.792C1124.98 850.294 1126.72 857.704 1126.72 866.02C1126.72 874.942 1124.45 882.729 1119.91 889.382C1115.53 895.884 1109.93 901.252 1103.13 905.486C1096.33 909.72 1088.77 912.895 1080.45 915.012C1072.28 916.978 1064.34 917.961 1056.63 917.961C1052.25 917.961 1047.94 917.734 1043.7 917.28C1039.62 916.827 1035.39 916.6 1031 916.6C1028.58 916.6 1025.79 916.827 1022.61 917.28C1019.59 917.734 1016.64 918.641 1013.77 920.002C1011.04 921.212 1008.7 922.875 1006.73 924.992C1004.92 926.958 1004.01 929.528 1004.01 932.704C1004.01 936.333 1005.22 939.357 1007.64 941.776C1010.06 944.196 1013.01 946.086 1016.49 947.447C1019.96 948.807 1023.59 949.79 1027.37 950.395C1031.31 950.849 1034.63 951.076 1037.35 951.076C1042.8 951.076 1048.09 950.471 1053.23 949.261C1058.37 947.9 1063.51 946.539 1068.65 945.178C1073.95 943.666 1079.16 942.305 1084.3 941.096C1089.45 939.735 1094.74 939.054 1100.18 939.054C1106.68 939.054 1112.2 940.869 1116.74 944.498C1121.28 948.127 1124.98 952.663 1127.85 958.107C1130.73 963.399 1132.84 969.221 1134.2 975.572C1135.56 981.771 1136.24 987.517 1136.24 992.809C1136.24 1007.78 1132.92 1021.54 1126.27 1034.09C1119.76 1046.64 1111.07 1057.38 1100.18 1066.3C1089.45 1075.22 1077.2 1082.17 1063.44 1087.16C1049.83 1092.15 1035.99 1094.65 1021.93 1094.65ZM1036.67 862.845C1036.67 859.367 1035.39 856.645 1032.82 854.679C1030.4 852.714 1027.37 851.277 1023.74 850.37C1020.27 849.311 1016.64 848.707 1012.86 848.555C1009.23 848.253 1006.13 848.102 1003.56 848.102C1000.08 848.102 997.434 848.707 995.62 849.916C993.805 851.126 992.52 852.714 991.764 854.679C991.008 856.494 990.554 858.686 990.403 861.257C990.403 863.676 990.403 866.247 990.403 868.969C990.403 873.354 991.084 876.605 992.445 878.722C993.805 880.839 996.905 881.897 1001.74 881.897C1004.47 881.897 1007.79 881.595 1011.72 880.99C1015.81 880.234 1019.66 879.1 1023.29 877.588C1026.92 876.076 1030.02 874.11 1032.59 871.691C1035.31 869.271 1036.67 866.323 1036.67 862.845Z" fill="white"/>
</svg>
