<svg width="800" height="800" viewBox="0 0 800 800" fill="none" xmlns="http://www.w3.org/2000/svg">
<path fill-rule="evenodd" clip-rule="evenodd" d="M400 800C179.086 800 0 620.914 0 400C0 179.086 179.086 0 400 0C620.914 0 800 179.086 800 400C800 620.914 620.914 800 400 800ZM206.293 384.07L349.658 240.705C358.456 231.907 372.72 231.907 381.518 240.705C390.315 249.502 390.315 263.766 381.518 272.564L276.609 377.472L577.778 377.472C590.219 377.472 600.305 387.558 600.305 400C600.305 412.442 590.219 422.528 577.778 422.528L276.609 422.528L381.518 527.436C390.315 536.234 390.315 550.498 381.518 559.295C372.72 568.093 358.456 568.093 349.659 559.295L206.293 415.93C197.495 407.132 197.495 392.868 206.293 384.07Z" fill="#C7C7C7"/>
</svg>
